<?xml version="1.0" encoding="iso-8859-1"?>
<!-- Generator: Adobe Illustrator 18.0.0, SVG Export Plug-In . SVG Version: 6.00 Build 0)  -->
<!DOCTYPE svg PUBLIC "-//W3C//DTD SVG 1.1//EN" "http://www.w3.org/Graphics/SVG/1.1/DTD/svg11.dtd">
<svg version="1.1" id="Capa_1" xmlns="http://www.w3.org/2000/svg" xmlns:xlink="http://www.w3.org/1999/xlink" x="0px" y="0px"
	 viewBox="0 0 333.977 333.977" style="enable-background:new 0 0 333.977 333.977;" xml:space="preserve">
<path d="M305.188,65.777c-15.874,0-28.789,12.915-28.789,28.789c0,5.521,1.565,10.682,4.271,15.068l-59.435,70.333
	c-3.445-1.46-7.23-2.269-11.201-2.269c-6.512,0-12.522,2.176-17.352,5.835l-50.122-36.198c0.716-2.507,1.106-5.15,1.106-7.884
	c0-15.873-12.915-28.786-28.789-28.786c-15.875,0-28.789,12.914-28.789,28.786c0,5.319,1.456,10.303,3.981,14.583L40.535,213.14
	c-3.591-1.611-7.564-2.516-11.748-2.516C12.914,210.624,0,223.538,0,239.41c0,15.874,12.914,28.789,28.787,28.789
	c15.874,0,28.789-12.914,28.789-28.789c0-5.136-1.358-9.958-3.726-14.137l49.733-59.343c3.47,1.485,7.287,2.31,11.293,2.31
	c6.61,0,12.703-2.246,17.568-6.006l49.982,36.096c-0.766,2.588-1.184,5.323-1.184,8.156c0,15.873,12.915,28.787,28.789,28.787
	c15.873,0,28.787-12.914,28.787-28.787c0-5.355-1.475-10.372-4.032-14.671l59.63-70.562c3.329,1.348,6.963,2.098,10.77,2.098
	c15.874,0,28.789-12.914,28.789-28.786C333.977,78.692,321.061,65.777,305.188,65.777z"/>
<g>
</g>
<g>
</g>
<g>
</g>
<g>
</g>
<g>
</g>
<g>
</g>
<g>
</g>
<g>
</g>
<g>
</g>
<g>
</g>
<g>
</g>
<g>
</g>
<g>
</g>
<g>
</g>
<g>
</g>
</svg>
